<?xml version="1.0" encoding="UTF-8"?>
<svg id="Layer_1" xmlns="http://www.w3.org/2000/svg" width="40" height="40" xmlns:xlink="http://www.w3.org/1999/xlink" version="1.1" viewBox="0 0 40 40">
  <defs>
    <style>
      .st0 {
      fill: url(#Unnamed_Gradient_32);
      }

      .st1 {
      fill: url(#Unnamed_Gradient_31);
      }

      .st2 {
      fill: url(#Unnamed_Gradient_33);
      }

      .st3 {
      fill: url(#Unnamed_Gradient_3);
      }
    </style>
    <linearGradient id="Unnamed_Gradient_3" x1="-294.3" y1="498.1" x2="-293.1" y2="496.9" gradientTransform="translate(-6243.6 10635.7) rotate(-180) scale(21.3)" gradientUnits="userSpaceOnUse">
      <stop offset="0" stop-color="#8e2de2"/>
      <stop offset="1" stop-color="#4a00e0"/>
    </linearGradient>
    <linearGradient id="Unnamed_Gradient_31" x1="8" y1="18.6" x2="15.4" y2="18.6" gradientTransform="matrix(1,0,0,1,0,0)" xlink:href="#Unnamed_Gradient_3"/>
    <linearGradient id="Unnamed_Gradient_32" x1="16.9" y1="18.5" x2="19.4" y2="18.5" gradientTransform="matrix(1,0,0,1,0,0)" xlink:href="#Unnamed_Gradient_3"/>
    <linearGradient id="Unnamed_Gradient_33" x1="20.3" y1="18.5" x2="27" y2="18.5" gradientTransform="matrix(1,0,0,1,0,0)" xlink:href="#Unnamed_Gradient_3"/>
  </defs>
  <path class="st3" d="M7.4,4.8C0,10.7-1.1,21.4,4.7,28.8c5.9,7.4,16.6,8.6,24,2.7l7,7s0,0,0,0c.8.7,2,.7,2.7,0,.7-.8.7-2,0-2.7l-7-7c2.4-3,3.8-6.8,3.7-10.7,0-9.4-7.7-17-17.1-17-3.9,0-7.7,1.3-10.7,3.7ZM4.8,18.1c0-7.3,5.9-13.3,13.3-13.3s13.3,5.9,13.3,13.3-5.9,13.3-13.3,13.3c-7.3,0-13.3-5.9-13.3-13.3Z"/>
  <g>
    <path class="st1" d="M8,20h2.5c0,.9.3,1.4,1.2,1.4s1.2-.6,1.2-1.4v-6.6h2.5v6.5c0,2.5-1.5,3.9-3.7,3.9s-3.7-1.4-3.7-3.9Z"/>
    <path class="st0" d="M16.9,13.4h2.5v10.3h-2.5v-10.3Z"/>
    <path class="st2" d="M22.4,15.7h-2.1v-2.4h6.7v2.4h-2.1v7.9h-2.5v-7.9Z"/>
  </g>
</svg>
